<?xml version="1.0" encoding="UTF-8" standalone="no"?>
<!-- Created with Inkscape (http://www.inkscape.org/) -->

<svg
   width="24mm"
   height="24mm"
   viewBox="0 0 24 24"
   version="1.1"
   id="svg5"
   inkscape:version="1.2.1 (9c6d41e410, 2022-07-14)"
   sodipodi:docname="PDF.svg"
   inkscape:export-filename="PDF.svg"
   inkscape:export-xdpi="96"
   inkscape:export-ydpi="96"
   xmlns:inkscape="http://www.inkscape.org/namespaces/inkscape"
   xmlns:sodipodi="http://sodipodi.sourceforge.net/DTD/sodipodi-0.dtd"
   xmlns="http://www.w3.org/2000/svg"
   xmlns:svg="http://www.w3.org/2000/svg">
  <sodipodi:namedview
     id="namedview7"
     pagecolor="#ffffff"
     bordercolor="#000000"
     borderopacity="0.25"
     inkscape:showpageshadow="2"
     inkscape:pageopacity="0.0"
     inkscape:pagecheckerboard="0"
     inkscape:deskcolor="#d1d1d1"
     inkscape:document-units="mm"
     showgrid="false"
     showguides="true"
     inkscape:zoom="4.7370599"
     inkscape:cx="-14.460446"
     inkscape:cy="27.654284"
     inkscape:window-width="1366"
     inkscape:window-height="699"
     inkscape:window-x="0"
     inkscape:window-y="0"
     inkscape:window-maximized="1"
     inkscape:current-layer="layer1" />
  <defs
     id="defs2">
    <rect
       x="16.916338"
       y="52.978169"
       width="47.031809"
       height="13.614003"
       id="rect4318" />
    <clipPath
       clipPathUnits="userSpaceOnUse"
       id="clipPath1646">
      <path
         id="path1648"
         style="fill:#ff0000;fill-opacity:1;fill-rule:nonzero;stroke:none;stroke-width:0.264583"
         d="m 32.575272,-4.2095621 v 7.5044514 h 8.458399 V 2.7734742 C 40.850952,2.7677342 40.668332,2.7578112 40.485901,2.7455692 40.0324,2.7116862 39.580497,2.6631722 39.129912,2.601392 38.610569,2.526792 38.092896,2.4416872 37.574966,2.357996 c 0.101677,0.3674395 0.103137,0.6124135 -0.389639,0.3100585 -0.133783,-0.082086 -0.276391,-0.1475578 -0.418062,-0.2144571 -0.0036,-0.00169 -0.0019,-9.71e-4 -0.0052,-0.00258 C 36.507801,2.7006235 36.043378,2.6913546 35.638661,2.2474068 35.403695,2.2572568 35.118275,2.1700512 34.81287,1.9435494 34.76911,1.9110937 34.725221,1.8783727 34.681094,1.8463977 34.578666,1.7746912 34.475711,1.7037464 34.37827,1.6252226 34.206024,1.4878886 34.039172,1.3438412 33.891479,1.1797717 33.734089,1.0106597 33.581774,0.83588606 33.44758,0.64750453 33.283147,0.40705783 33.129003,0.15934848 32.996444,-0.10025345 32.876911,-0.3434135 32.763378,-0.59195557 32.687419,-0.85266228 32.456736,-1.644452 32.772959,-2.0896272 33.188164,-2.0846285 c 0.173646,0.00209 0.364548,0.083286 0.540017,0.2506307 -0.01252,-0.033468 -0.02503,-0.067002 -0.03669,-0.100769 -0.200083,-0.5792753 -0.07461,-0.9954082 0.1757,-1.1833901 -0.02217,-0.1089433 -0.04417,-0.2179704 -0.06563,-0.3271118 v -5.292e-4 c -0.0091,-0.037381 -0.01654,-0.073832 -0.0217,-0.1095541 -0.03243,-0.1711524 -0.0616,-0.3428418 -0.0832,-0.5157309 -0.0084,-0.067201 0.0096,-0.1139145 0.03772,-0.1384927 z m 1.264005,0 c 0.02191,0.017883 0.04047,0.048099 0.04961,0.09095 0.0095,-0.013885 0.01947,-0.027462 0.02997,-0.040308 -0.01019,-0.016923 -0.01992,-0.033799 -0.02894,-0.050643 z m 6.516399,0 c 0.123127,0.144635 0.246237,0.2896574 0.360701,0.4413168 0.106096,0.1333167 0.21235,0.2667727 0.317294,0.4010091 V -4.2095621 Z M 35.553901,-1.25212 c 7.94e-4,0.00193 0.0019,0.00376 0.0026,0.00568 0.05143,0.1249665 0.104259,0.24922238 0.151929,0.3756876 0.02672,0.0690834 0.05697,0.1368501 0.08578,0.20515543 0.02743,0.068641 0.0597,0.135749 0.07958,0.20722249 0.0097,0.0350148 0.01683,0.0706091 0.02532,0.10593668 0.0227,0.10044009 0.01664,0.20554447 0.04186,0.30540773 0.02424,0.05903345 0.06012,0.11492708 0.09405,0.16949869 0.135176,0.22021929 0.268195,0.44199632 0.402042,0.66300863 0.0096,0.0160107 0.01976,0.0316144 0.02946,0.0475423 0.0081,-0.0269871 0.0265,-0.0491232 0.05685,-0.0651123 -0.03147,-0.0568993 -0.08829,-0.12734372 -0.175183,-0.21394042 -0.01545,-0.0146965 -0.02956,-0.0287885 -0.03049,-0.0299723 -5.29e-4,-8.4138e-4 0.0055,0.004691 0.02222,0.0211873 0.003,0.002983 0.0053,0.00584 0.0083,0.008785 0.01749,0.0166135 0.03653,0.0339586 0.04082,0.0346232 0.07993,0.0563544 0.164118,0.10573195 0.250113,0.1519287 0.0105,-7.964e-4 0.02098,-0.001799 0.03256,-0.002066 0.0222,-5.1594e-4 0.04706,5.7415e-4 0.07338,0.002066 0.07103,-0.052251 0.146029,-0.0993156 0.222724,-0.14314371 0.21704,-0.12078785 0.43878,-0.23383793 0.670245,-0.324528 -0.08721,-0.0794296 -0.160065,-0.15967963 -0.220144,-0.23977864 l -5.29e-4,-5.1673e-4 c -0.223613,-0.09968078 -0.444238,-0.326745 -0.600996,-0.70745038 -0.05696,-0.13833399 -0.140986,-0.26258938 -0.230476,-0.38240557 0.157372,0.83284741 -0.545277,0.00716 -1.031981,-0.1948202 z" />
    </clipPath>
  </defs>
  <g
     inkscape:label="Layer 1"
     inkscape:groupmode="layer"
     id="layer1">
    <path
       id="rect528"
       style="fill:#e3e6e8;fill-opacity:1;stroke-width:0.612428"
       d="M 16.999996 0 L 16.999996 0.0087849935 L 17.008781 0.0087849935 L 20.958927 0.0087849935 C 21.811456 0.0087849935 22.497852 0.67906913 22.497852 1.5120524 L 22.497852 5.4978556 L 22.497852 5.4999227 L 22.499919 5.4999227 L 22.499919 2.9998169 L 22.499919 1.5032674 C 22.499919 0.67028515 21.813521 3.133293e-16 20.960994 0 L 19.500102 0 L 16.999996 0 z M 22.497852 5.4999227 L 19.999813 5.4999227 L 18.53892 5.4999227 C 17.686395 5.4999227 16.999996 4.8296367 16.999996 3.9966553 L 16.999996 2.5001058 L 16.999996 0.0087849935 L 6.0476929 0.0087849935 C 5.195165 0.0087849935 4.5087687 0.67906913 4.5087687 1.5120524 L 4.5087687 22.487516 C 4.5087687 23.320499 5.195165 23.990784 6.0476929 23.990784 L 20.958927 23.990784 C 21.811456 23.990784 22.497852 23.320499 22.497852 22.487516 L 22.497852 5.4999227 z " />
    <rect
       style="fill:#f15641;fill-opacity:1;stroke-width:0.264916"
       id="rect3042"
       width="18.006256"
       height="8.9958954"
       x="1.4812047"
       y="10.992711"
       rx="1.5067358" />
    <g
       aria-label="PDF"
       transform="matrix(0.93509776,0,0,1.0694069,0.50321876,-0.50000154)"
       id="text4380"
       style="font-weight:bold;font-size:3.48544px;font-family:Comfortaa;-inkscape-font-specification:'Comfortaa, Bold';fill:#ffffff;stroke-width:0.261409">
      <path
         d="m 4.9901322,16.281046 q -0.07668,0 -0.1289613,-0.05228 -0.052282,-0.05228 -0.052282,-0.128961 V 13.74016 q 0,-0.08016 0.052282,-0.128961 0.052282,-0.05228 0.1289613,-0.05228 h 0.697088 q 0.2579225,0 0.460078,0.11502 0.205641,0.115019 0.3171751,0.32066 0.1150195,0.205641 0.1150195,0.467049 0,0.254437 -0.1150195,0.453107 -0.1115341,0.198671 -0.3171751,0.310205 -0.2021555,0.111534 -0.460078,0.111534 H 5.171375 v 0.763311 q 0,0.07668 -0.052282,0.128961 -0.048796,0.05228 -0.1289608,0.05228 z m 0.697088,-1.279157 q 0.2370099,0 0.3903692,-0.149873 0.1533594,-0.15336 0.1533594,-0.39037 0,-0.247466 -0.1533594,-0.407796 Q 5.9242301,13.89352 5.6872202,13.89352 H 5.171375 v 1.108369 z"
         id="path4835" />
      <path
         d="m 7.1615584,16.281046 q -0.07668,0 -0.1289612,-0.05228 -0.052282,-0.05228 -0.052282,-0.128961 V 13.74016 q 0,-0.08016 0.052282,-0.128961 0.052282,-0.05228 0.1289612,-0.05228 h 0.6308647 q 0.3938547,0 0.7005734,0.174272 0.3067188,0.174272 0.4775053,0.484476 0.1707866,0.306719 0.1707866,0.700574 0,0.393855 -0.1707866,0.704059 -0.1707865,0.310204 -0.4775053,0.484476 -0.3067187,0.174272 -0.7005734,0.174272 z m 0.6308647,-0.320661 q 0.2892915,0 0.5158451,-0.132446 0.2300391,-0.132447 0.3555149,-0.369457 0.1289613,-0.240495 0.1289613,-0.540243 0,-0.299748 -0.1289613,-0.536758 Q 8.5383073,14.144471 8.3082682,14.012024 8.0817146,13.879578 7.7924231,13.879578 H 7.3428013 v 2.080807 z"
         id="path4837" />
      <path
         d="m 9.6710717,16.281046 q -0.07668,0 -0.1289613,-0.05228 -0.052282,-0.05228 -0.052282,-0.128961 V 13.74016 q 0,-0.08016 0.052282,-0.128961 0.052282,-0.05228 0.1289613,-0.05228 h 1.5754193 q 0.08016,0 0.128961,0.0488 0.0488,0.04531 0.0488,0.121991 0,0.07319 -0.0488,0.118505 -0.0488,0.04531 -0.128961,0.04531 H 9.8523145 v 0.846961 h 1.0003215 q 0.07668,0 0.125476,0.0488 0.05228,0.04531 0.05228,0.118505 0,0.07319 -0.05228,0.12199 -0.0488,0.04531 -0.125476,0.04531 H 9.8523145 v 1.024719 q 0,0.07668 -0.052282,0.128961 -0.052282,0.05228 -0.1289612,0.05228 z"
         id="path4839" />
    </g>
    <path
       id="path2435"
       style="fill:#666666;fill-opacity:0.409213;stroke:#666666;stroke-width:0;stroke-dasharray:none"
       d="M 17,1.2071067e-6 V 2.500107 3.9966565 c 0,0.8329832 0.686397,1.5032674 1.538924,1.5032674 h 1.460893 2.500106 z" />
    <path
       id="path2522"
       style="fill:none;fill-opacity:0;stroke:#ffffff;stroke-width:0.280645;stroke-dasharray:none;stroke-opacity:1"
       d="m 14.505706,14.241164 a 1.3096776,1.3096776 0 0 1 0.796089,1.204774 v 0 a 1.3096776,1.3096776 0 0 1 -0.795927,1.204706" />
    <path
       id="path4588"
       style="fill:none;fill-opacity:0;stroke:#ffffff;stroke-width:0.280645;stroke-dasharray:none;stroke-opacity:1"
       d="m 13.544658,16.676806 a 1.3096776,1.3096776 0 0 1 -0.862218,-1.230868 1.3096776,1.3096776 0 0 1 0.862308,-1.2309" />
    <path
       sodipodi:type="star"
       style="fill:#ffffff;fill-opacity:1;stroke:#ffffff;stroke-width:0;stroke-dasharray:none;stroke-opacity:1"
       id="path4665"
       inkscape:flatsided="true"
       sodipodi:sides="3"
       sodipodi:cx="13.166462"
       sodipodi:cy="12.886605"
       sodipodi:r1="0.56732613"
       sodipodi:r2="0.28366309"
       sodipodi:arg1="1.8777125"
       sodipodi:arg2="2.92491"
       inkscape:rounded="0"
       inkscape:randomized="0"
       d="m 12.995061,13.42742 -0.211258,-0.95966 0.936719,0.296875 z"
       inkscape:transform-center-x="-0.041537096"
       inkscape:transform-center-y="0.10433023"
       transform="rotate(-9.1647991,21.083644,9.566782)" />
    <path
       sodipodi:type="star"
       style="fill:#ffffff;fill-opacity:0.91545892;stroke:#ffffff;stroke-width:0;stroke-dasharray:none;stroke-opacity:1"
       id="path4667"
       inkscape:flatsided="true"
       sodipodi:sides="3"
       sodipodi:cx="13.166462"
       sodipodi:cy="12.886605"
       sodipodi:r1="0.56732613"
       sodipodi:r2="0.28366309"
       sodipodi:arg1="1.8777125"
       sodipodi:arg2="2.92491"
       inkscape:rounded="0"
       inkscape:randomized="0"
       d="m 12.995061,13.42742 -0.211258,-0.95966 0.936719,0.296875 z"
       inkscape:transform-center-x="-0.006853165"
       inkscape:transform-center-y="-0.049095822"
       transform="rotate(46.424988,9.1986313,16.115305)" />
  </g>
</svg>
